<mxfile host="app.diagrams.net" modified="2023-04-26T01:08:16.015Z" agent="Mozilla/5.0 (Windows NT 10.0; Win64; x64) AppleWebKit/537.36 (KHTML, like Gecko) Chrome/114.0.0.0 Safari/537.36 Edg/114.0.0.0" etag="dzLhtV2WuW-5ifjDBrVG" version="21.2.1" type="device">
  <diagram name="第 1 页" id="pqXVmv6UzIAOokTkVvTh">
    <mxGraphModel dx="1840" dy="808" grid="1" gridSize="10" guides="1" tooltips="1" connect="1" arrows="1" fold="1" page="1" pageScale="1" pageWidth="827" pageHeight="1169" math="0" shadow="0">
      <root>
        <mxCell id="0" />
        <mxCell id="1" parent="0" />
        <mxCell id="ICJRTh7zQSD2-4wtCsYM-4" value="" style="edgeStyle=orthogonalEdgeStyle;rounded=0;orthogonalLoop=1;jettySize=auto;html=1;" edge="1" parent="1" source="ICJRTh7zQSD2-4wtCsYM-1" target="ICJRTh7zQSD2-4wtCsYM-3">
          <mxGeometry relative="1" as="geometry" />
        </mxCell>
        <mxCell id="ICJRTh7zQSD2-4wtCsYM-1" value="开始" style="rounded=1;whiteSpace=wrap;html=1;" vertex="1" parent="1">
          <mxGeometry x="354" y="110" width="120" height="60" as="geometry" />
        </mxCell>
        <mxCell id="ICJRTh7zQSD2-4wtCsYM-6" value="" style="edgeStyle=orthogonalEdgeStyle;rounded=0;orthogonalLoop=1;jettySize=auto;html=1;" edge="1" parent="1" source="ICJRTh7zQSD2-4wtCsYM-3" target="ICJRTh7zQSD2-4wtCsYM-5">
          <mxGeometry relative="1" as="geometry" />
        </mxCell>
        <mxCell id="ICJRTh7zQSD2-4wtCsYM-3" value="选择" style="shape=parallelogram;perimeter=parallelogramPerimeter;whiteSpace=wrap;html=1;fixedSize=1;" vertex="1" parent="1">
          <mxGeometry x="354" y="210" width="120" height="60" as="geometry" />
        </mxCell>
        <mxCell id="ICJRTh7zQSD2-4wtCsYM-8" value="是" style="edgeStyle=orthogonalEdgeStyle;rounded=0;orthogonalLoop=1;jettySize=auto;html=1;" edge="1" parent="1" source="ICJRTh7zQSD2-4wtCsYM-5" target="ICJRTh7zQSD2-4wtCsYM-7">
          <mxGeometry relative="1" as="geometry" />
        </mxCell>
        <mxCell id="ICJRTh7zQSD2-4wtCsYM-14" value="否" style="edgeStyle=orthogonalEdgeStyle;rounded=0;orthogonalLoop=1;jettySize=auto;html=1;" edge="1" parent="1" source="ICJRTh7zQSD2-4wtCsYM-5" target="ICJRTh7zQSD2-4wtCsYM-13">
          <mxGeometry relative="1" as="geometry" />
        </mxCell>
        <mxCell id="ICJRTh7zQSD2-4wtCsYM-5" value="4" style="rhombus;whiteSpace=wrap;html=1;" vertex="1" parent="1">
          <mxGeometry x="275" y="310" width="80" height="80" as="geometry" />
        </mxCell>
        <mxCell id="ICJRTh7zQSD2-4wtCsYM-10" value="" style="edgeStyle=orthogonalEdgeStyle;rounded=0;orthogonalLoop=1;jettySize=auto;html=1;" edge="1" parent="1" source="ICJRTh7zQSD2-4wtCsYM-7" target="ICJRTh7zQSD2-4wtCsYM-9">
          <mxGeometry relative="1" as="geometry" />
        </mxCell>
        <mxCell id="ICJRTh7zQSD2-4wtCsYM-7" value="查看借阅情况" style="rounded=0;whiteSpace=wrap;html=1;" vertex="1" parent="1">
          <mxGeometry x="255" y="430" width="120" height="60" as="geometry" />
        </mxCell>
        <mxCell id="ICJRTh7zQSD2-4wtCsYM-12" value="" style="edgeStyle=orthogonalEdgeStyle;rounded=0;orthogonalLoop=1;jettySize=auto;html=1;" edge="1" parent="1" source="ICJRTh7zQSD2-4wtCsYM-9" target="ICJRTh7zQSD2-4wtCsYM-11">
          <mxGeometry relative="1" as="geometry" />
        </mxCell>
        <mxCell id="ICJRTh7zQSD2-4wtCsYM-9" value="输出已借阅书籍" style="shape=parallelogram;perimeter=parallelogramPerimeter;whiteSpace=wrap;html=1;fixedSize=1;" vertex="1" parent="1">
          <mxGeometry x="255" y="530" width="120" height="60" as="geometry" />
        </mxCell>
        <mxCell id="ICJRTh7zQSD2-4wtCsYM-11" value="结束" style="rounded=1;whiteSpace=wrap;html=1;" vertex="1" parent="1">
          <mxGeometry x="255" y="630" width="120" height="60" as="geometry" />
        </mxCell>
        <mxCell id="ICJRTh7zQSD2-4wtCsYM-16" value="是" style="edgeStyle=orthogonalEdgeStyle;rounded=0;orthogonalLoop=1;jettySize=auto;html=1;" edge="1" parent="1" source="ICJRTh7zQSD2-4wtCsYM-13" target="ICJRTh7zQSD2-4wtCsYM-15">
          <mxGeometry relative="1" as="geometry" />
        </mxCell>
        <mxCell id="ICJRTh7zQSD2-4wtCsYM-13" value="6" style="rhombus;whiteSpace=wrap;html=1;" vertex="1" parent="1">
          <mxGeometry x="435" y="310" width="80" height="80" as="geometry" />
        </mxCell>
        <mxCell id="ICJRTh7zQSD2-4wtCsYM-18" value="" style="edgeStyle=orthogonalEdgeStyle;rounded=0;orthogonalLoop=1;jettySize=auto;html=1;" edge="1" parent="1" source="ICJRTh7zQSD2-4wtCsYM-15" target="ICJRTh7zQSD2-4wtCsYM-17">
          <mxGeometry relative="1" as="geometry" />
        </mxCell>
        <mxCell id="ICJRTh7zQSD2-4wtCsYM-15" value="修改密码" style="whiteSpace=wrap;html=1;" vertex="1" parent="1">
          <mxGeometry x="415" y="430" width="120" height="60" as="geometry" />
        </mxCell>
        <mxCell id="ICJRTh7zQSD2-4wtCsYM-20" value="" style="edgeStyle=orthogonalEdgeStyle;rounded=0;orthogonalLoop=1;jettySize=auto;html=1;" edge="1" parent="1" source="ICJRTh7zQSD2-4wtCsYM-17" target="ICJRTh7zQSD2-4wtCsYM-19">
          <mxGeometry relative="1" as="geometry" />
        </mxCell>
        <mxCell id="ICJRTh7zQSD2-4wtCsYM-17" value="输入原密码" style="shape=parallelogram;perimeter=parallelogramPerimeter;whiteSpace=wrap;html=1;fixedSize=1;" vertex="1" parent="1">
          <mxGeometry x="415" y="530" width="120" height="60" as="geometry" />
        </mxCell>
        <mxCell id="ICJRTh7zQSD2-4wtCsYM-21" value="否" style="edgeStyle=orthogonalEdgeStyle;rounded=0;orthogonalLoop=1;jettySize=auto;html=1;" edge="1" parent="1" source="ICJRTh7zQSD2-4wtCsYM-19" target="ICJRTh7zQSD2-4wtCsYM-17">
          <mxGeometry relative="1" as="geometry">
            <Array as="points">
              <mxPoint x="571" y="670" />
              <mxPoint x="571" y="560" />
            </Array>
          </mxGeometry>
        </mxCell>
        <mxCell id="ICJRTh7zQSD2-4wtCsYM-23" value="是" style="edgeStyle=orthogonalEdgeStyle;rounded=0;orthogonalLoop=1;jettySize=auto;html=1;" edge="1" parent="1" source="ICJRTh7zQSD2-4wtCsYM-19" target="ICJRTh7zQSD2-4wtCsYM-22">
          <mxGeometry relative="1" as="geometry" />
        </mxCell>
        <mxCell id="ICJRTh7zQSD2-4wtCsYM-19" value="是否正确" style="rhombus;whiteSpace=wrap;html=1;" vertex="1" parent="1">
          <mxGeometry x="435" y="630" width="80" height="80" as="geometry" />
        </mxCell>
        <mxCell id="ICJRTh7zQSD2-4wtCsYM-25" value="" style="edgeStyle=orthogonalEdgeStyle;rounded=0;orthogonalLoop=1;jettySize=auto;html=1;" edge="1" parent="1" source="ICJRTh7zQSD2-4wtCsYM-22" target="ICJRTh7zQSD2-4wtCsYM-24">
          <mxGeometry relative="1" as="geometry" />
        </mxCell>
        <mxCell id="ICJRTh7zQSD2-4wtCsYM-22" value="输入新密码" style="shape=parallelogram;perimeter=parallelogramPerimeter;whiteSpace=wrap;html=1;fixedSize=1;" vertex="1" parent="1">
          <mxGeometry x="415" y="750" width="120" height="60" as="geometry" />
        </mxCell>
        <mxCell id="ICJRTh7zQSD2-4wtCsYM-27" value="" style="edgeStyle=orthogonalEdgeStyle;rounded=0;orthogonalLoop=1;jettySize=auto;html=1;" edge="1" parent="1" source="ICJRTh7zQSD2-4wtCsYM-24" target="ICJRTh7zQSD2-4wtCsYM-26">
          <mxGeometry relative="1" as="geometry" />
        </mxCell>
        <mxCell id="ICJRTh7zQSD2-4wtCsYM-24" value="再次输入新密码" style="shape=parallelogram;perimeter=parallelogramPerimeter;whiteSpace=wrap;html=1;fixedSize=1;" vertex="1" parent="1">
          <mxGeometry x="415" y="850" width="120" height="60" as="geometry" />
        </mxCell>
        <mxCell id="ICJRTh7zQSD2-4wtCsYM-28" value="否" style="edgeStyle=orthogonalEdgeStyle;rounded=0;orthogonalLoop=1;jettySize=auto;html=1;" edge="1" parent="1" source="ICJRTh7zQSD2-4wtCsYM-26" target="ICJRTh7zQSD2-4wtCsYM-24">
          <mxGeometry relative="1" as="geometry">
            <Array as="points">
              <mxPoint x="571" y="990" />
              <mxPoint x="571" y="880" />
            </Array>
          </mxGeometry>
        </mxCell>
        <mxCell id="ICJRTh7zQSD2-4wtCsYM-30" value="是" style="edgeStyle=orthogonalEdgeStyle;rounded=0;orthogonalLoop=1;jettySize=auto;html=1;" edge="1" parent="1" source="ICJRTh7zQSD2-4wtCsYM-26" target="ICJRTh7zQSD2-4wtCsYM-29">
          <mxGeometry relative="1" as="geometry" />
        </mxCell>
        <mxCell id="ICJRTh7zQSD2-4wtCsYM-26" value="是否相等" style="rhombus;whiteSpace=wrap;html=1;" vertex="1" parent="1">
          <mxGeometry x="435" y="950" width="80" height="80" as="geometry" />
        </mxCell>
        <mxCell id="ICJRTh7zQSD2-4wtCsYM-29" value="结束" style="rounded=1;whiteSpace=wrap;html=1;" vertex="1" parent="1">
          <mxGeometry x="415" y="1070" width="120" height="60" as="geometry" />
        </mxCell>
      </root>
    </mxGraphModel>
  </diagram>
</mxfile>
